<svg width="23" height="23" viewBox="0 0 23 23" fill="none" xmlns="http://www.w3.org/2000/svg">
<path fill-rule="evenodd" clip-rule="evenodd" d="M11.5 13.5336L16.5821 18.6156C16.8517 18.8853 17.2175 19.0368 17.5989 19.0368C17.9802 19.0368 18.346 18.8853 18.6157 18.6156C18.8853 18.3459 19.0368 17.9802 19.0368 17.5988C19.0368 17.2174 18.8853 16.8517 18.6157 16.582L13.5317 11.5L18.6147 6.41794C18.7482 6.28441 18.854 6.12591 18.9262 5.95147C18.9984 5.77703 19.0356 5.59008 19.0355 5.40129C19.0355 5.2125 18.9983 5.02557 18.926 4.85116C18.8537 4.67676 18.7477 4.5183 18.6142 4.38484C18.4807 4.25137 18.3222 4.14552 18.1477 4.07331C17.9733 4.0011 17.7864 3.96396 17.5976 3.96401C17.4088 3.96405 17.2218 4.00128 17.0474 4.07357C16.873 4.14586 16.7146 4.25179 16.5811 4.38532L11.5 9.46736L6.41799 4.38532C6.28545 4.24796 6.12688 4.13837 5.95153 4.06296C5.77619 3.98754 5.58758 3.94779 5.39671 3.94604C5.20584 3.9443 5.01653 3.98058 4.83984 4.05277C4.66314 4.12497 4.50259 4.23163 4.36756 4.36654C4.23252 4.50145 4.12571 4.66189 4.05335 4.83852C3.98099 5.01515 3.94453 5.20442 3.94609 5.39529C3.94766 5.58616 3.98723 5.77481 4.06248 5.95023C4.13773 6.12564 4.24717 6.28431 4.3844 6.41698L9.46836 11.5L4.38536 16.583C4.24813 16.7157 4.13869 16.8743 4.06344 17.0497C3.98819 17.2252 3.94862 17.4138 3.94705 17.6047C3.94548 17.7955 3.98194 17.9848 4.05431 18.1614C4.12667 18.3381 4.23348 18.4985 4.36852 18.6334C4.50355 18.7683 4.6641 18.875 4.8408 18.9472C5.01749 19.0194 5.2068 19.0557 5.39767 19.0539C5.58854 19.0522 5.77715 19.0124 5.95249 18.937C6.12783 18.8616 6.2864 18.752 6.41894 18.6147L11.5 13.5336Z" fill="white"/>
</svg>
