<svg width="600" height="573" viewBox="0 0 600 573" fill="none" xmlns="http://www.w3.org/2000/svg">
<g filter="url(#filter0_d_42_38)">
<g clip-path="url(#clip0_42_38)">
<rect x="20" y="5" width="560" height="546" fill="url(#paint0_linear_42_38)"/>
<path d="M215.688 299C213.896 299 212.488 298.616 211.464 297.848C210.504 297.016 210.024 296.216 210.024 295.448C210.024 294.936 210.248 294.52 210.696 294.2C211.144 293.816 211.848 293.624 212.808 293.624C218.12 293.624 223.272 292.632 228.264 290.648C233.256 288.664 237.768 285.976 241.8 282.584C245.832 279.128 249.032 275.192 251.4 270.776C253.768 266.36 254.952 261.72 254.952 256.856C254.952 253.272 254.184 250.264 252.648 247.832C251.112 245.4 249.096 243.384 246.6 241.784C242.952 239.48 238.76 237.816 234.024 236.792C229.288 235.768 224.456 235.256 219.528 235.256C215.112 235.256 210.792 235.608 206.568 236.312C202.344 237.016 198.472 237.912 194.952 239C192.392 239.832 189.96 240.888 187.656 242.168C185.416 243.384 183.592 244.76 182.184 246.296C180.84 247.768 180.168 249.336 180.168 251C180.168 252.6 180.808 253.912 182.088 254.936C183.432 255.896 185.128 256.376 187.176 256.376C189.288 256.376 191.656 255.832 194.28 254.744C196.968 253.592 199.688 251.736 202.44 249.176C202.568 249.048 202.664 248.984 202.728 248.984C202.92 248.984 203.016 249.144 203.016 249.464C203.016 249.848 202.856 250.36 202.536 251C202.28 251.64 201.864 252.216 201.288 252.728C199.048 254.776 196.552 256.312 193.8 257.336C191.048 258.296 188.392 258.776 185.832 258.776C185.192 258.776 184.52 258.744 183.816 258.68C183.176 258.616 182.568 258.52 181.992 258.392C179.816 257.88 178.088 256.856 176.808 255.32C175.592 253.784 174.984 252.024 174.984 250.04C174.984 247.48 175.752 245.208 177.288 243.224C178.888 241.24 180.968 239.48 183.528 237.944C186.152 236.408 189.032 235.128 192.168 234.104C196.008 232.824 200.136 231.8 204.552 231.032C209.032 230.264 213.512 229.88 217.992 229.88C223.304 229.88 228.488 230.488 233.544 231.704C238.6 232.856 243.144 234.776 247.176 237.464C250.76 239.832 253.608 242.808 255.72 246.392C257.832 249.912 258.888 253.944 258.888 258.488C258.888 264.12 257.672 269.4 255.24 274.328C252.808 279.192 249.512 283.48 245.352 287.192C241.192 290.904 236.552 293.816 231.432 295.928C226.312 297.976 221.064 299 215.688 299ZM209.544 301.304C208.008 301.304 206.792 300.696 205.896 299.48C205 298.328 204.296 297.048 203.784 295.64C203.208 293.784 202.792 291.736 202.536 289.496C202.28 287.192 202.152 284.76 202.152 282.2C202.152 278.36 202.376 274.392 202.824 270.296C203.272 266.2 203.816 262.296 204.456 258.584C205.16 254.872 205.8 251.704 206.376 249.08C206.76 247.416 207.112 245.752 207.432 244.088C207.752 242.36 208.232 240.76 208.872 239.288C208.936 239.096 209.064 238.968 209.256 238.904C209.512 238.84 209.736 238.808 209.928 238.808C210.376 238.808 211.08 238.904 212.04 239.096C213.064 239.288 214.024 239.576 214.92 239.96C215.88 240.344 216.456 240.824 216.648 241.4V241.88C215.304 245.848 213.96 250.2 212.616 254.936C211.272 259.608 210.152 264.472 209.256 269.528C208.36 274.52 207.912 279.544 207.912 284.6V284.984C207.912 286.776 207.912 288.696 207.912 290.744C207.976 292.792 208.136 294.744 208.392 296.6C208.712 298.456 209.192 300.024 209.832 301.304H209.544ZM271.851 300.824C268.715 300.824 266.027 300.088 263.787 298.616C261.611 297.144 259.915 295.192 258.699 292.76C257.547 290.264 256.907 287.576 256.779 284.696V282.776C256.779 279.704 257.099 276.632 257.739 273.56C258.443 270.488 259.499 267.672 260.907 265.112C262.315 262.552 264.107 260.504 266.283 258.968C268.459 257.368 271.051 256.568 274.059 256.568H274.731C276.523 256.632 277.803 257.304 278.571 258.584C279.403 259.864 279.819 261.24 279.819 262.712V263.096C279.819 266.552 279.019 269.56 277.419 272.12C275.883 274.616 273.931 276.632 271.563 278.168C269.195 279.704 266.731 280.76 264.171 281.336V281.816C264.171 283.416 264.299 285.144 264.555 287C264.811 288.792 265.291 290.52 265.995 292.184C266.699 293.848 267.691 295.224 268.971 296.312C270.251 297.336 271.883 297.848 273.867 297.848C276.299 297.848 278.347 297.08 280.011 295.544C281.675 294.008 282.955 292.184 283.851 290.072C284.235 289.176 284.555 288.184 284.811 287.096C285.131 285.944 285.419 284.728 285.675 283.448C285.803 282.68 286.059 282.296 286.443 282.296C286.955 282.296 287.211 282.84 287.211 283.928C287.211 284.12 287.179 284.344 287.115 284.6C287.115 284.792 287.083 285.048 287.019 285.368C286.635 287.608 286.091 289.592 285.387 291.32C284.107 294.648 282.411 297.08 280.299 298.616C278.251 300.088 275.435 300.824 271.851 300.824ZM264.267 279.224C266.251 278.648 267.979 277.624 269.451 276.152C270.987 274.616 272.203 272.824 273.099 270.776C273.995 268.728 274.475 266.648 274.539 264.536V263.96C274.539 262.872 274.347 261.816 273.963 260.792C273.579 259.768 272.939 259.256 272.043 259.256H271.947C270.795 259.256 269.771 259.832 268.875 260.984C268.043 262.072 267.339 263.48 266.763 265.208C266.187 266.936 265.707 268.728 265.323 270.584C264.939 272.44 264.651 274.136 264.459 275.672C264.331 277.208 264.267 278.328 264.267 279.032V279.224ZM289.494 299.48C287.574 299.48 286.006 298.872 284.79 297.656C283.638 296.44 282.742 294.904 282.102 293.048C281.462 291.192 281.014 289.272 280.758 287.288C280.566 285.304 280.47 283.544 280.47 282.008V280.568C280.534 279.8 280.598 278.36 280.662 276.248C280.726 274.136 280.822 271.672 280.95 268.856C281.078 265.976 281.27 263.064 281.526 260.12H278.55C278.038 260.12 277.782 259.8 277.782 259.16C277.782 258.84 277.91 258.52 278.166 258.2C278.358 257.816 278.614 257.624 278.934 257.624H281.718C281.974 254.616 282.262 251.896 282.582 249.464C282.902 247.032 283.286 245.304 283.734 244.28C284.054 243.576 284.63 242.968 285.462 242.456C286.294 241.88 287.414 241.592 288.822 241.592C289.206 241.592 289.622 241.624 290.07 241.688C290.582 241.752 291.062 241.848 291.51 241.976C291.19 243.064 290.806 245.048 290.358 247.928C289.974 250.744 289.622 253.976 289.302 257.624H296.982C297.558 257.624 297.846 257.976 297.846 258.68C297.846 259 297.75 259.32 297.558 259.64C297.366 259.96 297.078 260.12 296.694 260.12H289.014C288.694 263.64 288.438 267.288 288.246 271.064C288.054 274.776 287.926 278.2 287.862 281.336V283.544C287.862 285.208 287.926 287.032 288.054 289.016C288.182 291 288.502 292.696 289.014 294.104C289.526 295.512 290.294 296.216 291.318 296.216H291.414C291.926 296.216 292.47 295.96 293.046 295.448C293.686 294.936 294.358 293.976 295.062 292.568C295.574 291.672 296.022 290.616 296.406 289.4C296.854 288.12 297.302 286.776 297.75 285.368C298.006 284.792 298.262 284.504 298.518 284.504C298.838 284.504 298.998 284.888 298.998 285.656V286.04C298.87 287.704 298.422 289.592 297.654 291.704C296.886 293.816 295.798 295.64 294.39 297.176C293.046 298.712 291.414 299.48 289.494 299.48ZM305.976 300.824C302.904 300.824 300.408 299.896 298.488 298.04C296.632 296.12 295.256 293.784 294.36 291.032C293.528 288.216 293.112 285.464 293.112 282.776C293.112 279.704 293.432 276.632 294.072 273.56C294.712 270.424 295.704 267.576 297.048 265.016C298.456 262.456 300.216 260.408 302.328 258.872C304.44 257.272 306.936 256.472 309.816 256.472C311.864 256.472 313.464 257.08 314.616 258.296C315.768 259.512 316.344 261.304 316.344 263.672C316.344 266.872 315.544 269.72 313.944 272.216C312.408 274.648 310.456 276.632 308.088 278.168C305.72 279.704 303.256 280.76 300.696 281.336V281.816C300.696 284.44 300.952 286.904 301.464 289.208C302.04 291.448 302.936 293.272 304.152 294.68C305.432 296.024 307.096 296.696 309.144 296.696C311.64 296.696 313.56 295.672 314.904 293.624C316.248 291.512 317.304 288.856 318.072 285.656C318.136 285.4 318.232 285.176 318.36 284.984C318.552 284.728 318.712 284.6 318.84 284.6C319.416 284.6 319.672 285.016 319.608 285.848C319.416 287.576 319.032 289.208 318.456 290.744C317.88 292.28 317.272 293.592 316.632 294.68C315.416 296.664 313.944 298.168 312.216 299.192C310.552 300.28 308.472 300.824 305.976 300.824ZM300.792 279.128C302.84 278.616 304.632 277.624 306.168 276.152C307.704 274.616 308.888 272.824 309.72 270.776C310.616 268.728 311.064 266.648 311.064 264.536V264.056C311.064 262.904 310.872 261.816 310.488 260.792C310.168 259.768 309.528 259.256 308.568 259.256C307.416 259.256 306.392 259.832 305.496 260.984C304.664 262.072 303.928 263.48 303.288 265.208C302.712 266.936 302.232 268.728 301.848 270.584C301.464 272.44 301.176 274.136 300.984 275.672C300.856 277.208 300.792 278.328 300.792 279.032V279.128ZM326.586 300.44C323.642 300.44 321.242 299.768 319.386 298.424C317.53 297.016 316.122 295.224 315.162 293.048C314.266 290.808 313.722 288.408 313.53 285.848C313.466 285.336 313.434 284.856 313.434 284.408C313.434 283.896 313.434 283.384 313.434 282.872C313.434 280.248 313.69 277.464 314.202 274.52C314.778 271.512 315.706 268.696 316.986 266.072C318.266 263.448 319.93 261.304 321.978 259.64C324.09 257.976 326.682 257.144 329.754 257.144C331.674 257.144 333.21 257.88 334.362 259.352C335.578 260.76 336.186 262.392 336.186 264.248C336.186 266.232 335.866 267.704 335.226 268.664C334.586 269.56 333.818 270.008 332.922 270.008C331.386 270.008 330.618 268.376 330.618 265.112C330.618 263.832 330.426 262.648 330.042 261.56C329.658 260.472 328.922 259.928 327.834 259.928C326.618 259.928 325.594 260.536 324.762 261.752C323.994 262.904 323.354 264.408 322.842 266.264C322.33 268.056 321.914 269.976 321.594 272.024C321.338 274.008 321.146 275.896 321.018 277.688C320.954 279.416 320.922 280.76 320.922 281.72V282.104C320.922 284.728 321.146 287.192 321.594 289.496C322.042 291.8 322.874 293.656 324.09 295.064C325.306 296.472 327.002 297.176 329.178 297.176C331.29 297.176 333.05 296.6 334.458 295.448C335.866 294.232 336.986 292.76 337.818 291.032C338.714 289.24 339.386 287.416 339.834 285.56C340.346 283.704 340.73 282.136 340.986 280.856C341.178 280.088 341.434 279.704 341.754 279.704C342.202 279.704 342.426 280.248 342.426 281.336C342.426 281.528 342.394 281.784 342.33 282.104C342.33 282.36 342.298 282.648 342.234 282.968C341.594 286.104 340.762 289.016 339.738 291.704C338.714 294.328 337.178 296.44 335.13 298.04C333.082 299.64 330.234 300.44 326.586 300.44ZM344.094 299.48C342.174 299.48 340.606 298.872 339.39 297.656C338.238 296.44 337.342 294.904 336.702 293.048C336.062 291.192 335.614 289.272 335.358 287.288C335.166 285.304 335.07 283.544 335.07 282.008V280.568C335.134 279.8 335.198 278.36 335.262 276.248C335.326 274.136 335.422 271.672 335.55 268.856C335.678 265.976 335.87 263.064 336.126 260.12H333.15C332.638 260.12 332.382 259.8 332.382 259.16C332.382 258.84 332.51 258.52 332.766 258.2C332.958 257.816 333.214 257.624 333.534 257.624H336.318C336.574 254.616 336.862 251.896 337.182 249.464C337.502 247.032 337.886 245.304 338.334 244.28C338.654 243.576 339.23 242.968 340.062 242.456C340.894 241.88 342.014 241.592 343.422 241.592C343.806 241.592 344.222 241.624 344.67 241.688C345.182 241.752 345.662 241.848 346.11 241.976C345.79 243.064 345.406 245.048 344.958 247.928C344.574 250.744 344.222 253.976 343.902 257.624H351.582C352.158 257.624 352.446 257.976 352.446 258.68C352.446 259 352.35 259.32 352.158 259.64C351.966 259.96 351.678 260.12 351.294 260.12H343.614C343.294 263.64 343.038 267.288 342.846 271.064C342.654 274.776 342.526 278.2 342.462 281.336V283.544C342.462 285.208 342.526 287.032 342.654 289.016C342.782 291 343.102 292.696 343.614 294.104C344.126 295.512 344.894 296.216 345.918 296.216H346.014C346.526 296.216 347.07 295.96 347.646 295.448C348.286 294.936 348.958 293.976 349.662 292.568C350.174 291.672 350.622 290.616 351.006 289.4C351.454 288.12 351.902 286.776 352.35 285.368C352.606 284.792 352.862 284.504 353.118 284.504C353.438 284.504 353.598 284.888 353.598 285.656V286.04C353.47 287.704 353.022 289.592 352.254 291.704C351.486 293.816 350.398 295.64 348.99 297.176C347.646 298.712 346.014 299.48 344.094 299.48Z" fill="white"/>
<path d="M381.055 258.072C378.466 260.691 375.281 262 371.5 262C367.719 262 364.514 260.691 361.884 258.072C359.295 255.453 358 252.252 358 248.469C358 244.686 359.295 241.506 361.884 238.928C364.514 236.309 367.719 235 371.5 235C375.281 235 378.466 236.309 381.055 238.928C383.685 241.506 385 244.686 385 248.469C385 252.252 383.685 255.453 381.055 258.072ZM363.979 240.799C362.007 242.836 361.021 245.393 361.021 248.469C361.021 251.545 362.007 254.122 363.979 256.201C365.993 258.238 368.5 259.256 371.5 259.256C374.5 259.256 376.986 258.238 378.959 256.201C380.973 254.122 381.979 251.545 381.979 248.469C381.979 245.393 380.973 242.836 378.959 240.799C376.986 238.762 374.5 237.744 371.5 237.744C368.5 237.744 365.993 238.762 363.979 240.799ZM366.753 254.642V241.859H373.041C374.356 241.859 375.425 242.212 376.247 242.919C377.068 243.626 377.479 244.54 377.479 245.663C377.479 246.453 377.233 247.139 376.74 247.721C376.247 248.303 375.589 248.677 374.767 248.843C376.082 249.134 376.781 250.007 376.863 251.462L376.986 253.27C377.069 254.06 377.151 254.517 377.233 254.642H374.274C374.192 254.517 374.11 254.102 374.027 253.395L373.904 251.649C373.822 250.527 373.288 249.965 372.301 249.965H369.712V254.642H366.753ZM369.712 247.97H372.486C373.801 247.97 374.459 247.284 374.459 245.912C374.459 245.372 374.274 244.935 373.904 244.603C373.534 244.27 373.062 244.104 372.486 244.104H369.712V247.97Z" fill="#FDFDFD"/>
</g>
</g>
<defs>
<filter id="filter0_d_42_38" x="0" y="0" width="600" height="573" filterUnits="userSpaceOnUse" color-interpolation-filters="sRGB">
<feFlood flood-opacity="0" result="BackgroundImageFix"/>
<feColorMatrix in="SourceAlpha" type="matrix" values="0 0 0 0 0 0 0 0 0 0 0 0 0 0 0 0 0 0 127 0" result="hardAlpha"/>
<feOffset dy="15"/>
<feGaussianBlur stdDeviation="10"/>
<feComposite in2="hardAlpha" operator="out"/>
<feColorMatrix type="matrix" values="0 0 0 0 0 0 0 0 0 0 0 0 0 0 0 0 0 0 0.15 0"/>
<feBlend mode="normal" in2="BackgroundImageFix" result="effect1_dropShadow_42_38"/>
<feBlend mode="normal" in="SourceGraphic" in2="effect1_dropShadow_42_38" result="shape"/>
</filter>
<linearGradient id="paint0_linear_42_38" x1="56.5" y1="41.5" x2="543.5" y2="506" gradientUnits="userSpaceOnUse">
<stop stop-color="#FBA43E"/>
<stop offset="1" stop-color="#FE462A"/>
</linearGradient>
<clipPath id="clip0_42_38">
<rect x="20" y="5" width="560" height="533" rx="40" fill="white"/>
</clipPath>
</defs>
</svg>
