<svg width="43" height="44" viewBox="0 0 43 44" fill="none" xmlns="http://www.w3.org/2000/svg">
<path d="M22.5018 3.66669C12.6028 3.66669 4.58509 11.8709 4.58509 22C4.58293 25.8485 5.76507 29.5999 7.96383 32.7222C10.1626 35.8444 13.2663 38.179 16.8347 39.3947C17.7305 39.5542 18.0674 39.0042 18.0674 38.522C18.0674 38.0875 18.0441 36.6447 18.0441 35.1084C13.5434 35.9572 12.3788 33.9864 12.0205 32.9542C11.818 32.4262 10.9455 30.8 10.184 30.3637C9.55696 30.0209 8.66113 29.172 10.1608 29.15C11.5726 29.1262 12.5795 30.4792 12.9163 31.0292C14.5288 33.8012 17.1035 33.022 18.1337 32.5417C18.2913 31.35 18.7608 30.5489 19.2768 30.0905C15.2903 29.6322 11.1247 28.05 11.1247 21.0375C11.1247 19.0429 11.818 17.3947 12.9611 16.1114C12.782 15.653 12.1549 13.7739 13.1403 11.253C13.1403 11.253 14.6399 10.7709 18.0674 13.1304C19.526 12.7168 21.033 12.5089 22.5465 12.5125C24.0695 12.5125 25.5924 12.7179 27.0257 13.1304C30.4532 10.747 31.9528 11.253 31.9528 11.253C32.9382 13.7739 32.3111 15.653 32.132 16.1114C33.2733 17.3947 33.9684 19.0209 33.9684 21.0375C33.9684 28.0739 29.7813 29.6322 25.7948 30.0905C26.4434 30.6625 27.0042 31.7625 27.0042 33.4822C27.0042 35.9334 26.9809 37.9042 26.9809 38.5239C26.9809 39.0042 27.3178 39.5762 28.2136 39.3929C31.7698 38.1638 34.8598 35.8247 37.0488 32.7047C39.2379 29.5847 40.4157 25.8408 40.4166 22C40.4166 11.8709 32.3989 3.66669 22.5 3.66669" fill="black"/>
</svg>
