<svg width="44" height="44" viewBox="0 0 44 44" fill="none" xmlns="http://www.w3.org/2000/svg">
<path d="M31.7222 4.125H12.2778C10.1156 4.125 8.04186 4.98396 6.51291 6.51291C4.98396 8.04186 4.125 10.1156 4.125 12.2778V31.7222C4.125 33.8844 4.98396 35.9581 6.51291 37.4871C8.04186 39.016 10.1156 39.875 12.2778 39.875H31.7222C33.8844 39.875 35.9581 39.016 37.4871 37.4871C39.016 35.9581 39.875 33.8844 39.875 31.7222V12.2778C39.875 10.1156 39.016 8.04186 37.4871 6.51291C35.9581 4.98396 33.8844 4.125 31.7222 4.125ZM16.2122 32.9853C16.2179 33.0851 16.2032 33.185 16.1689 33.2789C16.1347 33.3728 16.0816 33.4587 16.0129 33.5314C15.9442 33.604 15.8614 33.6618 15.7696 33.7013C15.6777 33.7407 15.5788 33.761 15.4788 33.7608H12.2155C12.0189 33.7556 11.8321 33.6736 11.695 33.5325C11.558 33.3913 11.4816 33.2022 11.4822 33.0055V19.4333C11.4795 19.3353 11.4964 19.2378 11.5321 19.1465C11.5677 19.0552 11.6213 18.9719 11.6897 18.9017C11.7581 18.8315 11.8398 18.7756 11.9301 18.7375C12.0204 18.6994 12.1175 18.6798 12.2155 18.6798H15.4788C15.5769 18.6795 15.6741 18.699 15.7645 18.737C15.8549 18.775 15.9368 18.8308 16.0052 18.9011C16.0736 18.9714 16.1272 19.0548 16.1628 19.1462C16.1983 19.2376 16.2151 19.3353 16.2122 19.4333V32.9853ZM13.7867 15.8253C13.4334 15.8227 13.084 15.7505 12.7586 15.6128C12.4332 15.4752 12.1381 15.2748 11.8902 15.0231C11.6422 14.7714 11.4463 14.4733 11.3135 14.1459C11.1807 13.8184 11.1138 13.4681 11.1164 13.1147C11.1191 12.7614 11.1913 12.4121 11.3289 12.0867C11.4666 11.7613 11.667 11.4662 11.9187 11.2182C12.1704 10.9703 12.4685 10.7743 12.7959 10.6416C13.1233 10.5088 13.4737 10.4419 13.827 10.4445C14.5283 10.4673 15.1929 10.7633 15.679 11.2692C16.1651 11.7752 16.4343 12.4511 16.429 13.1528C16.4237 13.8544 16.1445 14.5262 15.6508 15.0248C15.1572 15.5234 14.4882 15.8094 13.7867 15.8217M33.6178 32.9633C33.6174 33.1487 33.5449 33.3267 33.4155 33.4594C33.2861 33.5922 33.1101 33.6694 32.9248 33.6747H29.48C29.2945 33.669 29.1185 33.5914 28.9892 33.4583C28.8599 33.3252 28.7874 33.1471 28.787 32.9615V26.6842C28.787 25.7473 29.073 22.6087 26.301 22.6087C24.1395 22.6087 23.7123 24.8087 23.6298 25.7877V33.1045C23.6299 33.2904 23.5576 33.469 23.4283 33.6025C23.2989 33.7359 23.1226 33.8138 22.9368 33.8195H19.5947C19.5009 33.8195 19.408 33.801 19.3213 33.765C19.2347 33.7291 19.156 33.6764 19.0897 33.61C19.0235 33.5436 18.971 33.4647 18.9353 33.378C18.8995 33.2912 18.8813 33.1983 18.8815 33.1045V19.3673C18.8868 19.1814 18.9645 19.0049 19.098 18.8754C19.2316 18.7459 19.4105 18.6738 19.5965 18.6743H22.9368C23.1229 18.6738 23.3017 18.7459 23.4353 18.8754C23.5689 19.0049 23.6466 19.1814 23.6518 19.3673V20.5498C24.1396 19.836 24.8129 19.2688 25.5993 18.9096C26.3857 18.5503 27.2552 18.4125 28.1142 18.5112C33.6783 18.5112 33.6582 23.7087 33.6582 26.664L33.6178 32.9633Z" fill="black"/>
</svg>
