<svg width="54" height="32" viewBox="0 0 54 32" fill="none" xmlns="http://www.w3.org/2000/svg">
<path d="M4.55078 31.5249C1.71631 31.5249 0.0996094 29.8452 0.0996094 26.8638V5.36377C0.0996094 2.38232 1.71631 0.702637 4.55078 0.702637H17.8833C20.2769 0.702637 21.8096 1.9834 21.8096 4.25098C21.8096 6.51855 20.2349 7.79932 17.8833 7.79932H9.00195V13.5942H16.9805C19.2061 13.5942 20.6338 14.812 20.6338 16.9326C20.6338 19.0532 19.248 20.271 16.9805 20.271H9.00195V26.8638C9.00195 29.8452 7.38525 31.5249 4.55078 31.5249ZM38.2084 31.5249C28.8231 31.5249 22.9442 25.541 22.9442 15.8618C22.9442 6.18262 28.8441 0.177734 38.2084 0.177734C47.5726 0.177734 53.4725 6.18262 53.4725 15.8618C53.4725 25.541 47.5726 31.5249 38.2084 31.5249ZM38.2084 24.4282C41.9457 24.4282 44.4022 21.0898 44.4022 15.8618C44.4022 10.6128 41.9247 7.27441 38.2084 7.27441C34.4921 7.27441 32.0145 10.6128 32.0145 15.8618C32.0145 21.0898 34.4711 24.4282 38.2084 24.4282Z" fill="black"/>
</svg>
