<svg width="44" height="44" viewBox="0 0 44 44" fill="none" xmlns="http://www.w3.org/2000/svg">
<path d="M39.6 16.2206V31.9C39.6 33.3587 39.0206 34.7576 37.9891 35.7891C36.9577 36.8205 35.5587 37.4 34.1 37.4H9.90002C8.44133 37.4 7.04239 36.8205 6.01094 35.7891C4.97949 34.7576 4.40002 33.3587 4.40002 31.9V16.2206L21.4412 26.2482C21.6105 26.348 21.8035 26.4007 22 26.4007C22.1966 26.4007 22.3895 26.348 22.5588 26.2482L39.6 16.2206ZM34.1 8.79999C35.4533 8.79978 36.7592 9.29852 37.7679 10.2008C38.7765 11.1031 39.4171 12.3456 39.567 13.6906L22 24.024L4.43302 13.6906C4.58297 12.3456 5.22354 11.1031 6.23217 10.2008C7.24081 9.29852 8.5467 8.79978 9.90002 8.79999H34.1Z" fill="black"/>
</svg>
