<svg width="150" height="145" viewBox="0 0 150 145" fill="none" xmlns="http://www.w3.org/2000/svg">
<path fill-rule="evenodd" clip-rule="evenodd" d="M80.131 4.67212C79.1471 4.67212 78.2334 4.88314 77.3898 5.16433C79.1824 6.35924 80.1663 7.94084 80.6585 9.73292C80.6939 9.9793 80.764 10.155 80.7989 10.4008C80.8342 10.6118 80.8696 10.8223 80.8696 11.0333C81.0099 14.1264 80.0608 14.5125 79.3929 16.3405C78.3737 18.6955 78.6549 21.2257 79.8851 23.2641C79.9907 23.51 80.131 23.7911 80.3072 24.037C78.9714 15.1456 86.3872 13.8098 87.7578 11.0333C87.8633 8.60818 85.8597 6.99177 84.2786 5.86702C82.7666 4.95331 81.396 4.67212 80.131 4.67212ZM91.3077 6.67523C91.1663 7.48398 91.2724 7.27295 91.237 7.69446C91.2022 7.97565 91.2022 8.32699 91.1668 8.60818C91.0967 8.88937 91.0265 9.17055 90.921 9.45174C90.8503 9.73292 90.7453 10.0141 90.6398 10.2953C90.499 10.5765 90.394 10.8229 90.2537 11.1035C90.1476 11.2444 90.0775 11.3847 89.9719 11.5256L89.7609 11.8415C89.5852 12.0879 89.4096 12.3338 89.2339 12.5448C89.0229 12.7558 88.8477 13.0016 88.6014 13.1773V13.2127C88.3903 13.3883 88.1799 13.5988 87.9335 13.775C87.1954 14.3369 86.3519 14.7589 85.5785 15.2859C85.3326 15.4616 85.0868 15.6025 84.8758 15.8135C84.6299 15.9892 84.4189 16.1649 84.2084 16.3753C83.9621 16.5864 83.7864 16.7974 83.5754 17.0432C83.3997 17.2542 83.1892 17.5001 83.0483 17.7465C82.8727 17.9923 82.697 18.2381 82.5561 18.4845C82.4158 18.7657 82.3103 19.0115 82.17 19.2927C82.0645 19.5739 81.959 19.8203 81.8888 20.1009C81.7949 20.3905 81.7128 20.6837 81.6424 20.9798C81.6076 21.1201 81.6076 21.2958 81.5723 21.4367C81.5369 21.577 81.5369 21.7179 81.5021 21.8582C81.5021 22.1394 81.4667 22.4559 81.4667 22.7371C81.4667 22.9476 81.4667 23.1586 81.5021 23.3696C81.5021 23.6508 81.5374 23.932 81.6076 24.248C81.643 24.5292 81.7131 24.8104 81.7833 25.0916C81.8888 25.3727 81.959 25.6539 82.0645 25.9346C82.1352 26.1108 82.2401 26.2865 82.3103 26.4273L74.2271 23.2989C72.8566 22.9128 71.5208 22.5609 70.1502 22.2449L67.9361 21.7173C65.8211 21.2956 63.6864 20.9791 61.5401 20.7688C61.4693 20.7688 61.434 20.7334 61.3638 20.7334C59.2552 20.5224 57.1814 20.4174 55.0728 20.4174C53.5265 20.4174 51.9803 20.4876 50.4688 20.5931C48.3249 20.7334 46.1809 21.0146 44.0374 21.366C43.5099 21.4367 42.9823 21.5417 42.4558 21.6472C41.3659 21.8582 40.3119 22.104 39.2926 22.3504L37.711 22.7719C37.1835 22.9829 36.6918 23.2288 36.1996 23.4398L35.04 23.9674C34.9693 24.0022 34.8992 24.0022 34.8644 24.037C34.513 24.2126 34.1965 24.3535 33.8799 24.5292C33.775 24.5645 33.7043 24.5999 33.6341 24.6347C33.2479 24.8104 32.8612 25.0209 32.5447 25.1971C32.2989 25.3026 32.0525 25.4429 31.842 25.5484C31.7365 25.6191 31.5956 25.6893 31.5255 25.7241C31.2089 25.8998 30.8929 26.0754 30.6118 26.2517C30.2952 26.4268 30.014 26.603 29.7682 26.7787C29.5224 26.9543 29.276 27.0947 29.0655 27.2703C29.0302 27.3057 28.9948 27.3057 28.96 27.341C28.749 27.4814 28.5031 27.657 28.2921 27.8327L28.2214 27.9034L27.6949 28.3249C27.6242 28.3597 27.5535 28.4304 27.4839 28.4652C27.3082 28.6061 27.1326 28.7818 26.9563 28.9221C26.9215 28.9928 26.8514 29.0276 26.816 29.063C26.605 29.274 26.3945 29.4491 26.1835 29.6601C26.1481 29.6601 26.1481 29.6955 26.1128 29.7309C25.9023 29.9065 25.6913 30.117 25.4802 30.328C25.4454 30.3634 25.4454 30.3987 25.4101 30.3987C25.2258 30.5777 25.0499 30.7652 24.8831 30.9606C24.8124 31.0313 24.7074 31.1014 24.6372 31.1716C24.4616 31.3826 24.2505 31.5931 24.0395 31.8041C24.0042 31.8748 23.934 31.9096 23.8992 31.9798C23.618 32.261 23.3716 32.5422 23.0904 32.8234L22.9855 32.9289C22.4231 33.5261 21.8254 34.1238 21.1928 34.6508C20.5697 35.2068 19.9123 35.7233 19.2245 36.197C18.543 36.6751 17.8393 37.1208 17.1159 37.5328C16.3986 37.9263 15.6594 38.2784 14.9018 38.5874C14.1543 38.9049 13.392 39.1862 12.6175 39.4304C11.1414 39.747 9.62994 40.3441 8.32953 40.4496C8.04834 40.4496 7.73235 40.5204 7.45116 40.5552C7.13462 40.6259 6.85344 40.696 6.57225 40.7662L5.72924 41.0827C5.4475 41.1877 5.16632 41.3286 4.88513 41.4689C4.6393 41.6446 4.35811 41.7854 4.11228 41.9611C3.8659 42.1368 3.62007 42.3472 3.40904 42.5588C3.16321 42.7345 2.91737 42.9803 2.70635 43.1913C2.49532 43.4372 2.28484 43.6482 2.10862 43.894C1.93295 44.1752 1.72247 44.4216 1.5816 44.7022C1.40593 44.9486 1.23026 45.2298 1.08994 45.511C0.948527 45.827 0.80875 46.1082 0.703237 46.4247C0.592296 46.7274 0.486766 47.032 0.386699 47.3384C0.316538 47.6196 0.246378 47.9008 0.211026 48.1814C0.211026 48.2173 0.175673 48.2521 0.175673 48.2875C0.105513 48.6035 0.105513 49.0255 0.0701607 49.236C0.0353523 49.4824 0 49.6929 0 49.9393C0 50.0796 3.24178e-08 50.2553 0.0353522 50.3961C0.0707045 50.642 0.106057 50.853 0.176217 51.064C0.246378 51.2745 0.316538 51.4855 0.422051 51.6965V51.7313C0.527564 51.9424 0.667885 52.1534 0.808206 52.3644C0.949615 52.5749 1.08994 52.7859 1.26507 52.997C1.44128 53.1726 1.65231 53.3831 1.86333 53.5593C2.07382 53.7698 2.28484 53.9455 2.53068 54.1217C3.37423 54.8598 3.58526 55.1056 4.67465 55.668C4.85032 55.7735 5.026 55.8436 5.23702 55.9491C5.27238 55.9491 5.30718 55.984 5.34254 55.984C5.34254 56.0547 5.34254 56.0895 5.37734 56.1602C5.4127 56.4414 5.48286 56.7225 5.55356 57.0032C5.62046 57.2925 5.71442 57.575 5.8342 57.8467C5.93972 58.0578 6.01042 58.2688 6.11539 58.4798C6.15074 58.55 6.18609 58.6201 6.2209 58.6555C6.36177 58.9367 6.50209 59.1825 6.64295 59.4283L7.16997 60.1664C7.34565 60.3774 7.55613 60.6232 7.7677 60.8343C7.97818 61.0453 8.18921 61.2204 8.43504 61.432C8.43504 61.432 8.47039 61.4668 8.50574 61.4668C8.71623 61.6425 8.92725 61.8187 9.13828 61.959C9.38411 62.1347 9.62994 62.2756 9.91113 62.4159C10.1575 62.5567 10.4387 62.6971 10.7199 62.802C10.9304 62.9081 11.1767 62.9782 11.4226 63.0484C11.4579 63.0838 11.4927 63.0838 11.5629 63.1191C11.7043 63.1539 11.8794 63.1893 12.0198 63.2241C11.9148 65.1222 11.8794 66.9143 12.1612 67.5468C12.4766 68.2501 14.0234 66.1061 15.5697 63.6461C15.3586 66.0708 15.2183 68.918 15.5697 69.761C15.9564 70.6399 18.065 67.8987 19.8924 64.8758C44.8108 59.1123 67.5499 76.3338 69.9397 100.654C69.4829 96.8582 64.8082 94.7495 62.6643 95.2766C61.6102 97.8774 59.8176 101.216 56.9356 103.29C57.1873 100.943 57.0687 98.5712 56.5842 96.261C55.8114 99.4944 54.2999 102.517 52.2261 105.118C48.8878 105.363 45.5489 103.747 43.7916 101.321C43.6507 101.216 43.6159 101.006 43.5104 100.864C43.4049 100.619 43.2994 100.373 43.2292 100.127C43.1267 99.8912 43.0557 99.6431 43.0182 99.3888C42.9829 99.1425 42.9829 98.8966 42.9829 98.6154V98.0879C43.0182 97.842 43.0884 97.5962 43.1585 97.3504C43.2292 97.104 43.2994 96.8582 43.4049 96.6123C43.5452 96.366 43.6507 96.1201 43.8264 95.8743C44.4241 94.1872 44.4241 92.8166 43.3348 92.0084C43.1237 91.8703 42.9001 91.7525 42.6669 91.6565C42.526 91.6217 42.3503 91.5515 42.21 91.5162C42.1045 91.4808 42.0343 91.4455 41.9288 91.4107C41.6824 91.34 41.4366 91.2698 41.1908 91.235C40.9509 91.1656 40.7025 91.1301 40.4527 91.1295C40.2064 91.0941 39.9252 91.0588 39.6793 91.0588C39.5037 91.0588 39.328 91.0947 39.1518 91.0947C38.8711 91.0947 38.6253 91.1295 38.3795 91.1996C38.1331 91.235 37.8872 91.2703 37.6409 91.3405C37.395 91.4112 37.1487 91.4814 36.9028 91.5863C36.657 91.6919 36.446 91.7974 36.2001 91.9029C35.9891 92.0084 35.7781 92.1487 35.5322 92.2542C27.3436 97.5962 32.2287 110.108 37.8165 113.728C35.7079 114.114 33.5639 114.571 32.9668 115.028L32.8961 115.099C34.408 116.013 35.9891 116.786 37.6409 117.454C39.8904 118.191 42.2802 118.859 43.3348 119.14V119.176C46.2466 119.773 49.2242 119.985 52.1913 119.808C67.7604 118.719 80.5182 106.875 82.8379 91.2703C82.9086 91.5863 82.9787 91.8675 83.0489 92.1841C83.1544 92.8166 83.2947 93.4839 83.3649 94.1524V94.1872C83.4356 94.5037 83.4704 94.8203 83.5057 95.1009V95.2423C83.5411 95.5578 83.5765 95.8743 83.5765 96.156C83.6113 96.5422 83.6461 96.9283 83.6461 97.3156V97.8779C83.6461 98.0536 83.6814 98.2641 83.6814 98.4398C83.6814 98.6508 83.6461 98.8618 83.6461 99.0729V99.5645C83.6461 99.8109 83.6107 100.021 83.6107 100.268C83.6107 100.408 83.6107 100.549 83.5759 100.725C83.5759 100.97 83.5406 101.216 83.5406 101.497C83.5052 101.603 83.5052 101.708 83.5052 101.814C83.4704 102.095 83.4351 102.342 83.3997 102.622C83.3997 102.728 83.3997 102.833 83.3649 102.939C83.3295 103.29 83.2594 103.607 83.224 103.958V104.028C83.1539 104.345 83.0837 104.696 83.013 105.013V105.118L82.8025 106.067C82.8025 106.102 82.7672 106.172 82.7672 106.207C82.6965 106.523 82.6263 106.84 82.5213 107.156V107.262C82.4158 107.613 82.3103 107.929 82.2401 108.246C82.2048 108.281 82.2048 108.316 82.2048 108.316L81.8883 109.37C81.7479 109.722 81.6424 110.038 81.5021 110.389C81.3612 110.741 81.2557 111.093 81.1154 111.409C80.9745 111.76 80.8342 112.076 80.6933 112.428H80.6585C80.5171 112.744 80.3773 113.096 80.2017 113.412C80.1663 113.518 80.131 113.588 80.0962 113.658C80.0608 113.693 80.0608 113.729 80.0255 113.764C77.7412 118.368 74.3675 122.409 70.1497 125.572C69.8685 125.748 69.5873 125.958 69.3067 126.17C69.236 126.24 69.1304 126.275 69.0603 126.346C68.8145 126.521 68.5681 126.697 68.2874 126.873L68.3924 127.084H68.4278L69.9038 126.873H69.9392C70.8529 126.732 71.7666 126.556 72.6804 126.381C72.9262 126.345 73.2079 126.275 73.4538 126.205C73.6294 126.17 73.7697 126.135 73.9454 126.099C74.1918 126.065 74.4376 125.994 74.6835 125.959C74.8945 125.888 75.1055 125.854 75.3165 125.783C78.8311 124.94 82.2401 123.78 85.5089 122.409C79.9205 130.036 72.434 136.186 63.6829 140.228C67.7251 139.947 71.7666 139.279 75.6679 138.154C89.8316 133.972 101.746 124.448 108.88 111.62C107.432 119.757 104.204 127.473 99.4262 134.218C102.832 131.971 105.979 129.355 108.81 126.416C116.682 118.192 121.849 107.754 123.606 96.5422C124.805 102.104 125.149 107.817 124.625 113.482C150 78.091 126.734 41.3993 116.998 31.7345C116.964 31.6638 116.928 31.629 116.928 31.5588C116.893 31.5936 116.893 31.5936 116.893 31.629C116.893 31.5936 116.893 31.5936 116.858 31.5583C116.858 31.9803 116.823 32.4018 116.787 32.8239C116.682 33.6321 116.577 34.4055 116.436 35.1789C116.26 35.9518 116.05 36.7252 115.839 37.498C115.589 38.2591 115.308 39.0095 114.996 39.7475C114.673 40.4758 114.321 41.191 113.941 41.8915C113.555 42.5588 113.133 43.2621 112.676 43.8946C112.224 44.5483 111.743 45.1817 111.234 45.7927C110.707 46.4253 110.146 46.9876 109.583 47.5495C109.252 47.8525 108.912 48.1456 108.564 48.4284C108.283 48.6742 108.036 48.8852 107.755 49.1311C107.123 49.6233 106.49 50.0801 105.787 50.5016C105.12 50.9237 104.417 51.3452 103.714 51.6971C102.976 52.0484 102.238 52.3644 101.5 52.681C100.761 52.9622 99.988 53.2085 99.2152 53.419C98.438 53.6283 97.6523 53.8043 96.8602 53.9466C96.052 54.0869 95.2438 54.1571 94.4704 54.2272C93.908 54.2626 93.3456 54.2979 92.7833 54.2979C91.9751 54.2979 91.1668 54.2272 90.3934 54.1565C89.5852 54.0869 88.777 53.9814 88.0036 53.8057C87.1954 53.6643 86.422 53.4538 85.6486 53.208H85.6138C86.3872 53.1373 87.1601 53.0671 87.9335 52.9268C88.7264 52.7882 89.5123 52.6122 90.2885 52.3992C91.0614 52.1905 91.8237 51.9444 92.5728 51.6617C93.3456 51.3806 94.0837 51.0292 94.7864 50.6773C95.525 50.326 96.1928 49.9393 96.8955 49.5178C97.5634 49.0609 98.2308 48.604 98.8638 48.1118C99.4934 47.6223 100.092 47.0941 100.656 46.5302C101.254 46.0027 101.781 45.4055 102.308 44.8083C102.821 44.1928 103.314 43.5597 103.784 42.9102C103.854 42.8052 103.925 42.6643 103.995 42.5588C104.346 41.9964 104.698 41.4341 105.014 40.8717C105.401 40.175 105.753 39.4597 106.069 38.7283C106.386 37.9926 106.667 37.2419 106.912 36.4788C107.158 35.7407 107.334 34.9673 107.509 34.1945C107.65 33.3863 107.791 32.6129 107.861 31.8395C107.931 31.0313 108.002 30.2231 108.002 29.4497C108.002 28.8873 107.966 28.3249 107.931 27.7626C107.861 26.9543 107.756 26.1815 107.65 25.4076C107.512 24.6148 107.336 23.8291 107.123 23.0531C106.877 22.315 106.631 21.5422 106.35 20.8041C106.069 20.0661 105.717 19.3281 105.365 18.6248C104.979 17.9221 104.593 17.2194 104.17 16.5515C103.722 15.893 103.253 15.2483 102.765 14.6186C102.236 14.0123 101.697 13.4147 101.148 12.826C100.852 12.5245 100.547 12.2316 100.234 11.9476C98.66 10.7248 97.0298 9.57548 95.3493 8.50321C95.1035 8.36235 94.8924 8.25738 94.646 8.15186C93.4865 7.41382 92.3971 7.02658 91.3077 6.67523Z" fill="#E0234E"/>
</svg>
