<svg width="600" height="573" viewBox="0 0 600 573" fill="none" xmlns="http://www.w3.org/2000/svg">
<g filter="url(#filter0_d_37_381)">
<g clip-path="url(#clip0_37_381)">
<rect x="20" y="5" width="560" height="546" fill="url(#paint0_linear_37_381)"/>
<path d="M450.6 144C403.273 144.203 368.091 150.72 342.632 161.983C323.634 170.383 316.2 176.739 316.2 198.271V424C345.299 397.75 371.122 390.4 473 390.4V144H450.6ZM159.4 144C206.727 144.203 241.909 150.72 267.368 161.983C286.366 170.383 293.8 176.739 293.8 198.271V424C264.701 397.75 238.878 390.4 137 390.4V144H159.4Z" fill="#F8F8F8"/>
</g>
</g>
<defs>
<filter id="filter0_d_37_381" x="0" y="0" width="600" height="573" filterUnits="userSpaceOnUse" color-interpolation-filters="sRGB">
<feFlood flood-opacity="0" result="BackgroundImageFix"/>
<feColorMatrix in="SourceAlpha" type="matrix" values="0 0 0 0 0 0 0 0 0 0 0 0 0 0 0 0 0 0 127 0" result="hardAlpha"/>
<feOffset dy="15"/>
<feGaussianBlur stdDeviation="10"/>
<feComposite in2="hardAlpha" operator="out"/>
<feColorMatrix type="matrix" values="0 0 0 0 0 0 0 0 0 0 0 0 0 0 0 0 0 0 0.15 0"/>
<feBlend mode="normal" in2="BackgroundImageFix" result="effect1_dropShadow_37_381"/>
<feBlend mode="normal" in="SourceGraphic" in2="effect1_dropShadow_37_381" result="shape"/>
</filter>
<linearGradient id="paint0_linear_37_381" x1="71.5" y1="34" x2="607" y2="577" gradientUnits="userSpaceOnUse">
<stop stop-color="#EE1B4B"/>
<stop offset="1" stop-color="#D54A69"/>
</linearGradient>
<clipPath id="clip0_37_381">
<rect x="20" y="5" width="560" height="533" rx="40" fill="white"/>
</clipPath>
</defs>
</svg>
