<svg width="44" height="44" viewBox="0 0 44 44" fill="none" xmlns="http://www.w3.org/2000/svg">
<path d="M37.403 12.0297C36.0034 12.6488 34.5191 13.0554 32.9994 13.2361C34.6 12.2775 35.7975 10.7697 36.369 8.99372C34.8657 9.88839 33.2175 10.5154 31.5015 10.8546C30.3476 9.61995 28.8182 8.80115 27.1509 8.52546C25.4837 8.24977 23.7721 8.53262 22.2822 9.33005C20.7923 10.1275 19.6076 11.3948 18.9122 12.935C18.2169 14.4752 18.0499 16.202 18.4372 17.8469C15.3882 17.6943 12.4055 16.9022 9.68254 15.522C6.95963 14.1417 4.55746 12.2042 2.63202 9.83522C1.95055 11.0057 1.59244 12.3363 1.59435 13.6907C1.59435 16.3491 2.94918 18.6976 5.00435 20.0726C3.78704 20.0342 2.59654 19.7054 1.53202 19.1137V19.2072C1.53196 20.978 2.14441 22.6943 3.26549 24.065C4.38657 25.4356 5.94726 26.3764 7.68285 26.7276C6.55286 27.0341 5.36789 27.0793 4.21785 26.8596C4.70721 28.3838 5.66108 29.7168 6.94585 30.6718C8.23062 31.6268 9.78194 32.1561 11.3825 32.1854C9.79184 33.4347 7.97048 34.3582 6.0226 34.9031C4.07472 35.4479 2.03855 35.6034 0.0305176 35.3607C3.53534 37.6146 7.61521 38.8112 11.7822 38.8074C25.8879 38.8074 33.5989 27.1236 33.5989 16.9907C33.5989 16.6607 33.5915 16.3271 33.5769 15.9989C35.0773 14.9142 36.3723 13.5708 37.4012 12.0316" fill="black"/>
</svg>
